<svg width="480" height="90" viewBox="0 0 480 90" fill="none" shape-rendering="crispEdges" xmlns="http://www.w3.org/2000/svg">
<rect width="90" height="90" rx="4" fill="white"/>
<rect width="90" height="90" rx="4" stroke="black"/>
<path d="M58.8057 60V55.116H65.4057V34.172H58.8057V29.288H78.6057V34.172H72.0057V55.116H78.6057V60H58.8057Z" fill="currentColor"/>
<path d="M38.78 62L52.757 27H56.78L42.8031 62H38.78Z" fill="currentColor"/>
<path d="M29.92 60L27.984 52.608H19.58L17.688 60H11L19.316 29.288H28.644L36.96 60H29.92ZM23.98 35.668H23.628L20.636 47.284H26.972L23.98 35.668Z" fill="currentColor"/>
<path d="M475.524 57.542C474.236 57.542 473.2 57.22 472.416 56.576C471.632 55.904 471.17 54.952 471.03 53.72H470.82C470.428 55.148 469.644 56.226 468.468 56.954C467.32 57.682 465.906 58.046 464.226 58.046C462.126 58.046 460.432 57.486 459.144 56.366C457.884 55.218 457.254 53.622 457.254 51.578C457.254 49.31 458.08 47.63 459.732 46.538C461.384 45.446 463.806 44.9 466.998 44.9H470.484V43.808C470.484 42.52 470.176 41.554 469.56 40.91C468.972 40.238 467.964 39.902 466.536 39.902C465.22 39.902 464.156 40.154 463.344 40.658C462.532 41.162 461.832 41.82 461.244 42.632L457.842 39.608C458.57 38.376 459.704 37.368 461.244 36.584C462.812 35.772 464.814 35.366 467.25 35.366C470.218 35.366 472.528 36.052 474.18 37.424C475.86 38.768 476.7 40.812 476.7 43.556V53.048H479.094V57.542H475.524ZM466.578 53.972C467.67 53.972 468.594 53.706 469.35 53.174C470.106 52.642 470.484 51.872 470.484 50.864V48.26H467.166C464.618 48.26 463.344 49.114 463.344 50.822V51.662C463.344 52.418 463.638 52.992 464.226 53.384C464.814 53.776 465.598 53.972 466.578 53.972Z" fill="white"/>
<path d="M435.094 52.712H440.092V40.7H435.094V35.87H446.308V42.002H446.602C446.798 41.218 447.064 40.462 447.4 39.734C447.764 38.978 448.212 38.32 448.744 37.76C449.304 37.172 449.976 36.71 450.76 36.374C451.544 36.038 452.468 35.87 453.532 35.87H455.59V41.582H450.97C449.43 41.582 448.268 42.044 447.484 42.968C446.7 43.864 446.308 44.97 446.308 46.286V52.712H453.448V57.542H435.094V52.712Z" fill="white"/>
<path d="M411.885 52.712H418.269V40.7H411.465V35.87H418.269V32.72C418.269 30.872 418.801 29.374 419.865 28.226C420.957 27.05 422.637 26.462 424.905 26.462H432.255V31.292H424.485V35.87H432.255V40.7H424.485V52.712H431.289V57.542H411.885V52.712Z" fill="white"/>
<path d="M388.549 57.542V35.87H394.765V39.818H395.017C395.269 39.202 395.577 38.628 395.941 38.096C396.305 37.564 396.739 37.102 397.243 36.71C397.775 36.29 398.377 35.968 399.049 35.744C399.749 35.492 400.533 35.366 401.401 35.366C402.437 35.366 403.389 35.548 404.257 35.912C405.125 36.248 405.867 36.766 406.483 37.466C407.099 38.166 407.575 39.02 407.911 40.028C408.275 41.036 408.457 42.198 408.457 43.514V57.542H402.241V44.354C402.241 41.554 401.023 40.154 398.587 40.154C398.111 40.154 397.635 40.224 397.159 40.364C396.711 40.476 396.305 40.672 395.941 40.952C395.577 41.204 395.283 41.526 395.059 41.918C394.863 42.31 394.765 42.772 394.765 43.304V57.542H388.549Z" fill="white"/>
<path d="M376.679 33.098C375.279 33.098 374.299 32.818 373.739 32.258C373.207 31.67 372.941 30.97 372.941 30.158V28.94C372.941 28.1 373.207 27.4 373.739 26.84C374.299 26.28 375.279 26 376.679 26C378.079 26 379.045 26.28 379.577 26.84C380.137 27.4 380.417 28.1 380.417 28.94V30.158C380.417 30.97 380.137 31.67 379.577 32.258C379.045 32.818 378.079 33.098 376.679 33.098ZM366.683 52.712H373.571V40.7H366.683V35.87H379.787V52.712H386.171V57.542H366.683V52.712Z" fill="white"/>
<path d="M354.252 48.974C352.684 48.974 351.55 48.638 350.85 47.966C350.178 47.266 349.842 46.44 349.842 45.488V44.018C349.842 43.066 350.178 42.254 350.85 41.582C351.55 40.882 352.684 40.532 354.252 40.532C355.82 40.532 356.94 40.882 357.612 41.582C358.312 42.254 358.662 43.066 358.662 44.018V45.488C358.662 46.44 358.312 47.266 357.612 47.966C356.94 48.638 355.82 48.974 354.252 48.974Z" fill="white"/>
<path d="M341.022 57.542C339.734 57.542 338.698 57.22 337.914 56.576C337.13 55.904 336.668 54.952 336.528 53.72H336.318C335.926 55.148 335.142 56.226 333.966 56.954C332.818 57.682 331.404 58.046 329.724 58.046C327.624 58.046 325.93 57.486 324.642 56.366C323.382 55.218 322.752 53.622 322.752 51.578C322.752 49.31 323.578 47.63 325.23 46.538C326.882 45.446 329.304 44.9 332.496 44.9H335.982V43.808C335.982 42.52 335.674 41.554 335.058 40.91C334.47 40.238 333.462 39.902 332.034 39.902C330.718 39.902 329.654 40.154 328.842 40.658C328.03 41.162 327.33 41.82 326.742 42.632L323.34 39.608C324.068 38.376 325.202 37.368 326.742 36.584C328.31 35.772 330.312 35.366 332.748 35.366C335.716 35.366 338.026 36.052 339.678 37.424C341.358 38.768 342.198 40.812 342.198 43.556V53.048H344.592V57.542H341.022ZM332.076 53.972C333.168 53.972 334.092 53.706 334.848 53.174C335.604 52.642 335.982 51.872 335.982 50.864V48.26H332.664C330.116 48.26 328.842 49.114 328.842 50.822V51.662C328.842 52.418 329.136 52.992 329.724 53.384C330.312 53.776 331.096 53.972 332.076 53.972Z" fill="white"/>
<path d="M311.429 33.098C310.029 33.098 309.049 32.818 308.489 32.258C307.957 31.67 307.691 30.97 307.691 30.158V28.94C307.691 28.1 307.957 27.4 308.489 26.84C309.049 26.28 310.029 26 311.429 26C312.829 26 313.795 26.28 314.327 26.84C314.887 27.4 315.167 28.1 315.167 28.94V30.158C315.167 30.97 314.887 31.67 314.327 32.258C313.795 32.818 312.829 33.098 311.429 33.098ZM301.433 52.712H308.321V40.7H301.433V35.87H314.537V52.712H320.921V57.542H301.433V52.712Z" fill="white"/>
<path d="M277.131 26.462H283.347V39.818H283.599C283.851 39.202 284.159 38.628 284.523 38.096C284.887 37.564 285.321 37.102 285.825 36.71C286.357 36.29 286.959 35.968 287.631 35.744C288.331 35.492 289.115 35.366 289.983 35.366C291.019 35.366 291.971 35.548 292.839 35.912C293.707 36.248 294.449 36.766 295.065 37.466C295.681 38.166 296.157 39.02 296.493 40.028C296.857 41.036 297.039 42.198 297.039 43.514V57.542H290.823V44.354C290.823 41.554 289.605 40.154 287.169 40.154C286.693 40.154 286.217 40.224 285.741 40.364C285.293 40.476 284.887 40.672 284.523 40.952C284.159 41.204 283.865 41.526 283.641 41.918C283.445 42.31 283.347 42.772 283.347 43.304V57.542H277.131V26.462Z" fill="white"/>
<path d="M264.799 58.046C263.091 58.046 261.551 57.794 260.179 57.29C258.835 56.758 257.687 56.002 256.735 55.022C255.811 54.042 255.097 52.852 254.593 51.452C254.089 50.052 253.837 48.47 253.837 46.706C253.837 44.942 254.089 43.36 254.593 41.96C255.097 40.56 255.811 39.37 256.735 38.39C257.687 37.41 258.835 36.668 260.179 36.164C261.551 35.632 263.077 35.366 264.757 35.366C267.137 35.366 269.041 35.856 270.469 36.836C271.925 37.788 273.031 39.062 273.787 40.658L268.999 43.262C268.607 42.422 268.089 41.722 267.445 41.162C266.829 40.602 265.933 40.322 264.757 40.322C263.329 40.322 262.223 40.742 261.439 41.582C260.683 42.394 260.305 43.514 260.305 44.942V48.47C260.305 49.898 260.683 51.032 261.439 51.872C262.223 52.684 263.357 53.09 264.841 53.09C266.045 53.09 266.983 52.81 267.655 52.25C268.355 51.69 268.943 50.962 269.419 50.066L274.123 52.754C273.339 54.35 272.191 55.638 270.679 56.618C269.195 57.57 267.235 58.046 264.799 58.046Z" fill="white"/>
<path d="M248.688 57.542C247.4 57.542 246.364 57.22 245.58 56.576C244.796 55.904 244.334 54.952 244.194 53.72H243.984C243.592 55.148 242.808 56.226 241.632 56.954C240.484 57.682 239.07 58.046 237.39 58.046C235.29 58.046 233.596 57.486 232.308 56.366C231.048 55.218 230.418 53.622 230.418 51.578C230.418 49.31 231.244 47.63 232.896 46.538C234.548 45.446 236.97 44.9 240.162 44.9H243.648V43.808C243.648 42.52 243.34 41.554 242.724 40.91C242.136 40.238 241.128 39.902 239.7 39.902C238.384 39.902 237.32 40.154 236.508 40.658C235.696 41.162 234.996 41.82 234.408 42.632L231.006 39.608C231.734 38.376 232.868 37.368 234.408 36.584C235.976 35.772 237.978 35.366 240.414 35.366C243.382 35.366 245.692 36.052 247.344 37.424C249.024 38.768 249.864 40.812 249.864 43.556V53.048H252.258V57.542H248.688ZM239.742 53.972C240.834 53.972 241.758 53.706 242.514 53.174C243.27 52.642 243.648 51.872 243.648 50.864V48.26H240.33C237.782 48.26 236.508 49.114 236.508 50.822V51.662C236.508 52.418 236.802 52.992 237.39 53.384C237.978 53.776 238.762 53.972 239.742 53.972Z" fill="white"/>
<path d="M208.006 52.712H214.642V31.292H208.006V26.462H220.858V52.712H227.494V57.542H208.006V52.712Z" fill="white"/>
<path d="M202.521 57.542C201.233 57.542 200.197 57.22 199.413 56.576C198.629 55.904 198.167 54.952 198.027 53.72H197.817C197.425 55.148 196.641 56.226 195.465 56.954C194.317 57.682 192.903 58.046 191.223 58.046C189.123 58.046 187.429 57.486 186.141 56.366C184.881 55.218 184.251 53.622 184.251 51.578C184.251 49.31 185.077 47.63 186.729 46.538C188.381 45.446 190.803 44.9 193.995 44.9H197.481V43.808C197.481 42.52 197.173 41.554 196.557 40.91C195.969 40.238 194.961 39.902 193.533 39.902C192.217 39.902 191.153 40.154 190.341 40.658C189.529 41.162 188.829 41.82 188.241 42.632L184.839 39.608C185.567 38.376 186.701 37.368 188.241 36.584C189.809 35.772 191.811 35.366 194.247 35.366C197.215 35.366 199.525 36.052 201.177 37.424C202.857 38.768 203.697 40.812 203.697 43.556V53.048H206.091V57.542H202.521ZM193.575 53.972C194.667 53.972 195.591 53.706 196.347 53.174C197.103 52.642 197.481 51.872 197.481 50.864V48.26H194.163C191.615 48.26 190.341 49.114 190.341 50.822V51.662C190.341 52.418 190.635 52.992 191.223 53.384C191.811 53.776 192.595 53.972 193.575 53.972Z" fill="white"/>
<path d="M161.461 35.87H167.677V39.818H167.971C168.503 38.53 169.273 37.466 170.281 36.626C171.289 35.786 172.661 35.366 174.397 35.366C175.601 35.366 176.693 35.59 177.673 36.038C178.681 36.486 179.535 37.172 180.235 38.096C180.963 39.02 181.523 40.196 181.915 41.624C182.335 43.052 182.545 44.746 182.545 46.706C182.545 48.666 182.335 50.36 181.915 51.788C181.523 53.216 180.963 54.392 180.235 55.316C179.535 56.24 178.681 56.926 177.673 57.374C176.693 57.822 175.601 58.046 174.397 58.046C172.661 58.046 171.289 57.64 170.281 56.828C169.273 55.988 168.503 54.91 167.971 53.594H167.677V65.942H161.461V35.87ZM171.709 53.216C173.109 53.216 174.187 52.796 174.943 51.956C175.699 51.088 176.077 49.898 176.077 48.386V45.026C176.077 43.514 175.699 42.338 174.943 41.498C174.187 40.63 173.109 40.196 171.709 40.196C170.617 40.196 169.665 40.462 168.853 40.994C168.069 41.526 167.677 42.366 167.677 43.514V49.898C167.677 51.046 168.069 51.886 168.853 52.418C169.665 52.95 170.617 53.216 171.709 53.216Z" fill="white"/>
<path d="M138.377 35.87H144.593V39.818H144.887C145.419 38.53 146.189 37.466 147.197 36.626C148.205 35.786 149.577 35.366 151.313 35.366C152.517 35.366 153.609 35.59 154.589 36.038C155.597 36.486 156.451 37.172 157.151 38.096C157.879 39.02 158.439 40.196 158.831 41.624C159.251 43.052 159.461 44.746 159.461 46.706C159.461 48.666 159.251 50.36 158.831 51.788C158.439 53.216 157.879 54.392 157.151 55.316C156.451 56.24 155.597 56.926 154.589 57.374C153.609 57.822 152.517 58.046 151.313 58.046C149.577 58.046 148.205 57.64 147.197 56.828C146.189 55.988 145.419 54.91 144.887 53.594H144.593V65.942H138.377V35.87ZM148.625 53.216C150.025 53.216 151.103 52.796 151.859 51.956C152.615 51.088 152.993 49.898 152.993 48.386V45.026C152.993 43.514 152.615 42.338 151.859 41.498C151.103 40.63 150.025 40.196 148.625 40.196C147.533 40.196 146.581 40.462 145.769 40.994C144.985 41.526 144.593 42.366 144.593 43.514V49.898C144.593 51.046 144.985 51.886 145.769 52.418C146.581 52.95 147.533 53.216 148.625 53.216Z" fill="white"/>
<path d="M133.27 57.542C131.982 57.542 130.946 57.22 130.162 56.576C129.378 55.904 128.916 54.952 128.776 53.72H128.566C128.174 55.148 127.39 56.226 126.214 56.954C125.066 57.682 123.652 58.046 121.972 58.046C119.872 58.046 118.178 57.486 116.89 56.366C115.63 55.218 115 53.622 115 51.578C115 49.31 115.826 47.63 117.478 46.538C119.13 45.446 121.552 44.9 124.744 44.9H128.23V43.808C128.23 42.52 127.922 41.554 127.306 40.91C126.718 40.238 125.71 39.902 124.282 39.902C122.966 39.902 121.902 40.154 121.09 40.658C120.278 41.162 119.578 41.82 118.99 42.632L115.588 39.608C116.316 38.376 117.45 37.368 118.99 36.584C120.558 35.772 122.56 35.366 124.996 35.366C127.964 35.366 130.274 36.052 131.926 37.424C133.606 38.768 134.446 40.812 134.446 43.556V53.048H136.84V57.542H133.27ZM124.324 53.972C125.416 53.972 126.34 53.706 127.096 53.174C127.852 52.642 128.23 51.872 128.23 50.864V48.26H124.912C122.364 48.26 121.09 49.114 121.09 50.822V51.662C121.09 52.418 121.384 52.992 121.972 53.384C122.56 53.776 123.344 53.972 124.324 53.972Z" fill="white"/>
</svg>
