<svg width="485" height="88" viewBox="0 0 485 88" fill="none" xmlns="http://www.w3.org/2000/svg">
<path d="M481.368 55.7332C480.108 55.7332 479.095 55.4184 478.329 54.7887C477.562 54.1316 477.11 53.2008 476.974 51.9962H476.768C476.385 53.3925 475.618 54.4465 474.468 55.1583C473.346 55.8701 471.963 56.2261 470.321 56.2261C468.267 56.2261 466.611 55.6785 465.352 54.5834C464.12 53.4609 463.504 51.9004 463.504 49.9018C463.504 47.6842 464.311 46.0415 465.927 44.9738C467.542 43.906 469.91 43.3722 473.031 43.3722H476.44V42.3044C476.44 41.0451 476.139 40.1005 475.536 39.4708C474.961 38.8138 473.976 38.4852 472.579 38.4852C471.293 38.4852 470.252 38.7316 469.458 39.2244C468.664 39.7172 467.98 40.3606 467.405 41.1546L464.079 38.1978C464.79 36.9932 465.899 36.0076 467.405 35.241C468.938 34.447 470.896 34.05 473.278 34.05C476.18 34.05 478.438 34.7208 480.054 36.0623C481.696 37.3764 482.518 39.375 482.518 42.058V51.3391H484.858V55.7332H481.368ZM472.62 52.2426C473.688 52.2426 474.592 51.9825 475.331 51.4623C476.07 50.9421 476.44 50.1892 476.44 49.2036V46.6575H473.195C470.704 46.6575 469.458 47.4925 469.458 49.1626V49.9839C469.458 50.7231 469.746 51.2844 470.321 51.6676C470.896 52.0509 471.662 52.2426 472.62 52.2426Z" fill="#10372D"/>
<path d="M441.015 51.0106H445.902V39.2655H441.015V34.5428H451.98V40.5386H452.267C452.459 39.772 452.719 39.0328 453.048 38.321C453.404 37.5818 453.842 36.9384 454.362 36.3908C454.909 35.8159 455.566 35.3642 456.333 35.0356C457.1 34.7071 458.003 34.5428 459.043 34.5428H461.056V40.1279H456.538C455.033 40.1279 453.896 40.5796 453.13 41.4831C452.363 42.3592 451.98 43.4406 451.98 44.7274V51.0106H458.961V55.7332H441.015V51.0106Z" fill="#10372D"/>
<path d="M417.5 51.0105H423.742V39.2655H417.09V34.5428H423.742V31.4628C423.742 29.6559 424.263 28.1912 425.303 27.0687C426.371 25.9188 428.013 25.3439 430.231 25.3439H437.418V30.0665H429.82V34.5428H437.418V39.2655H429.82V51.0105H436.473V55.7332H417.5V51.0105Z" fill="#10372D"/>
<path d="M393.862 55.7332V34.5428H399.94V38.4031H400.186C400.432 37.8008 400.734 37.2396 401.09 36.7194C401.445 36.1992 401.87 35.7475 402.363 35.3642C402.883 34.9535 403.471 34.6387 404.128 34.4196C404.813 34.1732 405.579 34.05 406.428 34.05C407.441 34.05 408.372 34.228 409.221 34.5839C410.069 34.9124 410.795 35.4189 411.397 36.1034C412 36.7878 412.465 37.6228 412.794 38.6084C413.149 39.594 413.327 40.7302 413.327 42.017V55.7332H407.25V42.8383C407.25 40.1005 406.059 38.7316 403.677 38.7316C403.211 38.7316 402.746 38.8001 402.28 38.937C401.842 39.0465 401.445 39.2381 401.09 39.5119C400.734 39.7583 400.446 40.0732 400.227 40.4564C400.035 40.8397 399.94 41.2915 399.94 41.8116V55.7332H393.862Z" fill="#10372D"/>
<path d="M381.435 31.8326C380.066 31.8326 379.107 31.5588 378.56 31.0113C378.04 30.4363 377.78 29.7519 377.78 28.9579V27.767C377.78 26.9457 378.04 26.2612 378.56 25.7137C379.107 25.1661 380.066 24.8923 381.435 24.8923C382.803 24.8923 383.748 25.1661 384.268 25.7137C384.816 26.2612 385.089 26.9457 385.089 27.767V28.9579C385.089 29.7519 384.816 30.4363 384.268 31.0113C383.748 31.5588 382.803 31.8326 381.435 31.8326ZM371.661 51.0107H378.396V39.2657H371.661V34.543H384.473V51.0107H390.716V55.7334H371.661V51.0107Z" fill="#10372D"/>
<path d="M356.729 47.3557C355.195 47.3557 354.087 47.0272 353.402 46.3701C352.745 45.6857 352.417 44.878 352.417 43.9472V42.5099C352.417 41.579 352.745 40.7851 353.402 40.128C354.087 39.4435 355.195 39.1013 356.729 39.1013C358.262 39.1013 359.357 39.4435 360.014 40.128C360.698 40.7851 361.041 41.579 361.041 42.5099V43.9472C361.041 44.878 360.698 45.6857 360.014 46.3701C359.357 47.0272 358.262 47.3557 356.729 47.3557Z" fill="#10372D"/>
<path d="M341.016 55.7332C339.756 55.7332 338.744 55.4184 337.977 54.7887C337.21 54.1316 336.759 53.2008 336.622 51.9962H336.416C336.033 53.3925 335.267 54.4465 334.117 55.1583C332.994 55.8701 331.612 56.2261 329.969 56.2261C327.916 56.2261 326.259 55.6785 325 54.5834C323.768 53.4609 323.152 51.9004 323.152 49.9018C323.152 47.6842 323.959 46.0415 325.575 44.9738C327.19 43.906 329.558 43.3722 332.679 43.3722H336.088V42.3044C336.088 41.0451 335.787 40.1005 335.184 39.4708C334.609 38.8138 333.624 38.4852 332.228 38.4852C330.941 38.4852 329.9 38.7316 329.107 39.2244C328.313 39.7172 327.628 40.3606 327.053 41.1546L323.727 38.1978C324.439 36.9932 325.547 36.0076 327.053 35.241C328.586 34.447 330.544 34.05 332.926 34.05C335.828 34.05 338.086 34.7208 339.702 36.0623C341.344 37.3764 342.166 39.375 342.166 42.058V51.3391H344.507V55.7332H341.016ZM332.269 52.2426C333.336 52.2426 334.24 51.9825 334.979 51.4623C335.718 50.9421 336.088 50.1892 336.088 49.2036V46.6575H332.844C330.352 46.6575 329.107 47.4925 329.107 49.1626V49.9839C329.107 50.7231 329.394 51.2844 329.969 51.6676C330.544 52.0509 331.31 52.2426 332.269 52.2426Z" fill="#10372D"/>
<path d="M311.259 31.8326C309.89 31.8326 308.932 31.5588 308.384 31.0113C307.864 30.4363 307.604 29.7519 307.604 28.9579V27.767C307.604 26.9457 307.864 26.2612 308.384 25.7137C308.932 25.1661 309.89 24.8923 311.259 24.8923C312.628 24.8923 313.572 25.1661 314.092 25.7137C314.64 26.2612 314.914 26.9457 314.914 27.767V28.9579C314.914 29.7519 314.64 30.4363 314.092 31.0113C313.572 31.5588 312.628 31.8326 311.259 31.8326ZM301.485 51.0107H308.22V39.2657H301.485V34.543H314.298V51.0107H320.54V55.7334H301.485V51.0107Z" fill="#10372D"/>
<path d="M276.902 25.3439H282.98V38.4031H283.226C283.473 37.8008 283.774 37.2395 284.13 36.7193C284.485 36.1992 284.91 35.7474 285.403 35.3641C285.923 34.9535 286.511 34.6386 287.169 34.4196C287.853 34.1732 288.62 34.05 289.468 34.05C290.481 34.05 291.412 34.228 292.261 34.5839C293.11 34.9124 293.835 35.4189 294.437 36.1033C295.04 36.7878 295.505 37.6228 295.834 38.6084C296.189 39.594 296.367 40.7302 296.367 42.0169V55.7332H290.29V42.8383C290.29 40.1005 289.099 38.7316 286.717 38.7316C286.251 38.7316 285.786 38.8 285.321 38.9369C284.882 39.0464 284.485 39.2381 284.13 39.5119C283.774 39.7583 283.486 40.0731 283.267 40.4564C283.076 40.8397 282.98 41.2914 282.98 41.8116V55.7332H276.902V25.3439Z" fill="#10372D"/>
<path d="M264.023 56.2261C262.353 56.2261 260.847 55.9797 259.506 55.4869C258.192 54.9667 257.069 54.2275 256.138 53.2692C255.235 52.311 254.537 51.1475 254.044 49.7786C253.551 48.4097 253.305 46.8628 253.305 45.138C253.305 43.4132 253.551 41.8664 254.044 40.4975C254.537 39.1286 255.235 37.9651 256.138 37.0068C257.069 36.0486 258.192 35.3231 259.506 34.8303C260.847 34.3101 262.339 34.05 263.982 34.05C266.309 34.05 268.171 34.5292 269.567 35.4874C270.991 36.4182 272.072 37.6639 272.811 39.2244L268.13 41.7706C267.746 40.9492 267.24 40.2648 266.61 39.7172C266.008 39.1697 265.132 38.8959 263.982 38.8959C262.586 38.8959 261.504 39.3066 260.738 40.1279C259.999 40.9219 259.629 42.017 259.629 43.4132V46.8629C259.629 48.2591 259.999 49.3679 260.738 50.1892C261.504 50.9832 262.613 51.3802 264.064 51.3802C265.241 51.3802 266.159 51.1064 266.816 50.5588C267.5 50.0113 268.075 49.2995 268.54 48.4234L273.14 51.0516C272.373 52.6122 271.251 53.8716 269.772 54.8298C268.321 55.7606 266.405 56.2261 264.023 56.2261Z" fill="#10372D"/>
<path d="M247.448 55.7332C246.189 55.7332 245.176 55.4184 244.409 54.7887C243.643 54.1316 243.191 53.2008 243.054 51.9962H242.849C242.465 53.3925 241.699 54.4465 240.549 55.1583C239.427 55.8701 238.044 56.2261 236.401 56.2261C234.348 56.2261 232.692 55.6785 231.432 54.5834C230.2 53.4609 229.584 51.9004 229.584 49.9018C229.584 47.6842 230.392 46.0415 232.007 44.9738C233.622 43.906 235.991 43.3722 239.112 43.3722H242.52V42.3044C242.52 41.0451 242.219 40.1005 241.617 39.4708C241.042 38.8138 240.056 38.4852 238.66 38.4852C237.373 38.4852 236.333 38.7316 235.539 39.2244C234.745 39.7172 234.061 40.3606 233.486 41.1546L230.159 38.1978C230.871 36.9932 231.98 36.0076 233.486 35.241C235.019 34.447 236.976 34.05 239.358 34.05C242.26 34.05 244.519 34.7208 246.134 36.0623C247.777 37.3764 248.598 39.375 248.598 42.058V51.3391H250.939V55.7332H247.448ZM238.701 52.2426C239.769 52.2426 240.672 51.9825 241.411 51.4623C242.151 50.9421 242.52 50.1892 242.52 49.2036V46.6575H239.276C236.785 46.6575 235.539 47.4925 235.539 49.1626V49.9839C235.539 50.7231 235.826 51.2844 236.401 51.6676C236.976 52.0509 237.743 52.2426 238.701 52.2426Z" fill="#10372D"/>
<path d="M206.849 51.0105H213.338V30.0665H206.849V25.3439H219.416V51.0105H225.904V55.7332H206.849V51.0105Z" fill="#10372D"/>
<path d="M200.664 55.7332C199.405 55.7332 198.392 55.4184 197.625 54.7887C196.859 54.1316 196.407 53.2008 196.27 51.9962H196.065C195.682 53.3925 194.915 54.4465 193.765 55.1583C192.643 55.8701 191.26 56.2261 189.617 56.2261C187.564 56.2261 185.908 55.6785 184.648 54.5834C183.416 53.4609 182.8 51.9004 182.8 49.9018C182.8 47.6842 183.608 46.0415 185.223 44.9738C186.839 43.906 189.207 43.3722 192.328 43.3722H195.736V42.3044C195.736 41.0451 195.435 40.1005 194.833 39.4708C194.258 38.8138 193.272 38.4852 191.876 38.4852C190.589 38.4852 189.549 38.7316 188.755 39.2244C187.961 39.7172 187.277 40.3606 186.702 41.1546L183.375 38.1978C184.087 36.9932 185.196 36.0076 186.702 35.241C188.235 34.447 190.192 34.05 192.574 34.05C195.476 34.05 197.735 34.7208 199.35 36.0623C200.993 37.3764 201.814 39.375 201.814 42.058V51.3391H204.155V55.7332H200.664ZM191.917 52.2426C192.985 52.2426 193.888 51.9825 194.627 51.4623C195.367 50.9421 195.736 50.1892 195.736 49.2036V46.6575H192.492C190.001 46.6575 188.755 47.4925 188.755 49.1626V49.9839C188.755 50.7231 189.042 51.2844 189.617 51.6676C190.192 52.0509 190.959 52.2426 191.917 52.2426Z" fill="#10372D"/>
<path d="M159.696 34.5428H165.774V38.4031H166.061C166.581 37.1437 167.334 36.1034 168.32 35.282C169.305 34.4607 170.647 34.05 172.344 34.05C173.522 34.05 174.589 34.2691 175.548 34.7071C176.533 35.1452 177.368 35.8159 178.053 36.7194C178.764 37.6228 179.312 38.7727 179.695 40.169C180.106 41.5652 180.311 43.2216 180.311 45.138C180.311 47.0545 180.106 48.7108 179.695 50.1071C179.312 51.5034 178.764 52.6532 178.053 53.5567C177.368 54.4602 176.533 55.1309 175.548 55.569C174.589 56.007 173.522 56.2261 172.344 56.2261C170.647 56.2261 169.305 55.8291 168.32 55.0351C167.334 54.2138 166.581 53.1597 166.061 51.873H165.774V63.9466H159.696V34.5428ZM169.716 51.5034C171.085 51.5034 172.139 51.0927 172.878 50.2714C173.617 49.4227 173.987 48.2591 173.987 46.7807V43.4954C173.987 42.017 173.617 40.8671 172.878 40.0458C172.139 39.1971 171.085 38.7727 169.716 38.7727C168.648 38.7727 167.717 39.0328 166.924 39.553C166.157 40.0732 165.774 40.8945 165.774 42.017V48.2591C165.774 49.3816 166.157 50.2029 166.924 50.7231C167.717 51.2433 168.648 51.5034 169.716 51.5034Z" fill="#10372D"/>
<path d="M136.304 34.5428H142.382V38.4031H142.669C143.189 37.1437 143.942 36.1034 144.928 35.282C145.913 34.4607 147.255 34.05 148.952 34.05C150.129 34.05 151.197 34.2691 152.155 34.7071C153.141 35.1452 153.976 35.8159 154.661 36.7194C155.372 37.6228 155.92 38.7727 156.303 40.169C156.714 41.5652 156.919 43.2216 156.919 45.138C156.919 47.0545 156.714 48.7108 156.303 50.1071C155.92 51.5034 155.372 52.6532 154.661 53.5567C153.976 54.4602 153.141 55.1309 152.155 55.569C151.197 56.007 150.129 56.2261 148.952 56.2261C147.255 56.2261 145.913 55.8291 144.928 55.0351C143.942 54.2138 143.189 53.1597 142.669 51.873H142.382V63.9466H136.304V34.5428ZM146.324 51.5034C147.693 51.5034 148.747 51.0927 149.486 50.2714C150.225 49.4227 150.595 48.2591 150.595 46.7807V43.4954C150.595 42.017 150.225 40.8671 149.486 40.0458C148.747 39.1971 147.693 38.7727 146.324 38.7727C145.256 38.7727 144.325 39.0328 143.531 39.553C142.765 40.0732 142.382 40.8945 142.382 42.017V48.2591C142.382 49.3816 142.765 50.2029 143.531 50.7231C144.325 51.2433 145.256 51.5034 146.324 51.5034Z" fill="#10372D"/>
<path d="M130.489 55.7332C129.229 55.7332 128.216 55.4184 127.45 54.7887C126.683 54.1316 126.231 53.2008 126.094 51.9962H125.889C125.506 53.3925 124.739 54.4465 123.589 55.1583C122.467 55.8701 121.084 56.2261 119.442 56.2261C117.388 56.2261 115.732 55.6785 114.473 54.5834C113.241 53.4609 112.625 51.9004 112.625 49.9018C112.625 47.6842 113.432 46.0415 115.047 44.9738C116.663 43.906 119.031 43.3722 122.152 43.3722H125.561V42.3044C125.561 41.0451 125.259 40.1005 124.657 39.4708C124.082 38.8138 123.097 38.4852 121.7 38.4852C120.413 38.4852 119.373 38.7316 118.579 39.2244C117.785 39.7172 117.101 40.3606 116.526 41.1546L113.199 38.1978C113.911 36.9932 115.02 36.0076 116.526 35.241C118.059 34.447 120.017 34.05 122.398 34.05C125.3 34.05 127.559 34.7208 129.174 36.0623C130.817 37.3764 131.638 39.375 131.638 42.058V51.3391H133.979V55.7332H130.489ZM121.741 52.2426C122.809 52.2426 123.713 51.9825 124.452 51.4623C125.191 50.9421 125.561 50.1892 125.561 49.2036V46.6575H122.316C119.825 46.6575 118.579 47.4925 118.579 49.1626V49.9839C118.579 50.7231 118.867 51.2844 119.442 51.6676C120.017 52.0509 120.783 52.2426 121.741 52.2426Z" fill="#10372D"/>
<path d="M0 3.91111C0 1.75106 1.75106 0 3.91111 0H84.0889C86.2489 0 88 1.75106 88 3.91111V84.0889C88 86.2489 86.2489 88 84.0889 88H3.91111C1.75106 88 0 86.2489 0 84.0889V3.91111Z" fill="#10372D" fill-opacity="0.9"/>
<path d="M57.4988 58.6668V53.8914H63.9521V33.4128H57.4988V28.6373H76.8588V33.4128H70.4054V53.8914H76.8588V58.6668H57.4988Z" fill="white"/>
<path d="M37.9182 60.6222L51.5846 26.4H55.5182L41.8519 60.6222H37.9182Z" fill="white"/>
<path d="M29.2552 58.6668L27.3622 51.4391H19.1449L17.295 58.6668H10.7556L18.8868 28.6373H28.0075L36.1387 58.6668H29.2552ZM23.4472 34.8756H23.103L20.1775 46.2334H26.3727L23.4472 34.8756Z" fill="white"/>
</svg>
