<svg xmlns="http://www.w3.org/2000/svg" width="512" height="512" viewBox="0 0 512 512" fill="none"><metadata><rdf:RDF xmlns:rdf="http://www.w3.org/1999/02/22-rdf-syntax-ns#" xmlns:dc="http://purl.org/dc/elements/1.1/"><rdf:Description><dc:creator>RealFaviconGenerator</dc:creator><dc:source>https://realfavicongenerator.net</dc:source></rdf:Description></rdf:RDF></metadata><path d="M0 22.7556C0 10.188 10.188 0 22.7556 0H489.244C501.812 0 512 10.188 512 22.7556V489.244C512 501.812 501.812 512 489.244 512H22.7556C10.188 512 0 501.812 0 489.244V22.7556Z" fill="white"></path><path d="M334.539 341.333V313.549H372.085V194.401H334.539V166.616H447.179V194.401H409.632V313.549H447.179V341.333H334.539Z" fill="#10372D"></path><path d="M220.615 352.711L300.129 153.6H323.015L243.502 352.711H220.615Z" fill="#10372D"></path><path d="M170.212 341.333L159.198 299.281H111.389L100.625 341.333H62.5779L109.887 166.616H162.953L210.261 341.333H170.212ZM136.42 202.911H134.417L117.396 268.993H153.441L136.42 202.911Z" fill="#10372D"></path></svg>